:SAMPLES-PER-SECOND 30
:FULLY-SPECIFIED
:DEGREES
1234
root  3.45328 39.5656 25.3378 -175.949 75.0242 -170.649
RightUpLeg  -2.64946 -15.6985 2.67248
RightLeg  22.701 -2.71184 1.40289
RightFoot  -13.0837 -0.164284 -4.98429
RightToes  0.000482159 0.542163 -0.142577
Spine  13.6827 1.43657 13.1696
Spine1  10.4176 4.28198 -2.66252
HEad  14.453 -3.74469 -2.88795
LeftShoulder1  8.16884 -12.3017 -45.0372
LeftArm  -4.82246 20.256 -29.2164
LeftForeArm  36.923 -13.5679 -5.39878
LeftHand  -0.25398 0.0180481 5.50724
RightShoulder  5.40962 9.16212 36.7102
RightArm  -3.77045 -2.98221 33.6834
RightForeArm  2.08689 12.5225 7.31184
RightHand  -3.99988 11.7488 -27.0594
LeftUpLeg  -21.2588 0.247758 2.79816
LeftLeg  50.3658 3.8452 5.39198
LeftFoot  2.51698 -0.0757496 0.464626
LeftToes  1.06246e-005 4.65854e-005 -8.18502e-006
1235
root  5.09535 39.6409 25.1196 -175.994 75.5034 -171.047
RightUpLeg  0.935118 -13.2194 2.00748
RightLeg  20.5446 -4.59927 2.1939
RightFoot  -14.1515 -0.208307 -4.56802
RightToes  0.000482159 0.542163 -0.142577
Spine  13.3737 2.05984 13.758
Spine1  10.3867 5.16335 -4.15007
HEad  14.3713 -4.36353 -3.01061
LeftShoulder1  8.19186 -12.3286 -45.0895
LeftArm  -4.87385 22.4745 -28.6368
LeftForeArm  37.2161 -13.0014 -5.52205
LeftHand  -0.25398 0.0180481 5.50724
RightShoulder  5.33383 9.05803 36.4677
RightArm  -0.48355 -2.07884 33.9684
RightForeArm  -0.727271 15.2165 6.90167
RightHand  -3.96671 11.7448 -26.8528
LeftUpLeg  -21.9299 2.38804 1.99579
LeftLeg  38.2197 3.88929 3.7156
LeftFoot  1.06389 0.120075 -1.14769
LeftToes  1.06246e-005 4.65854e-005 -8.18502e-006
1236
root  6.75615 39.6588 24.8791 -175.886 75.9314 -171.402
RightUpLeg  4.65919 -10.9962 1.62077
RightLeg  17.7933 -6.18812 2.96718
RightFoot  -15.2054 -0.250871 -4.38977
RightToes  0.000482159 0.542163 -0.142577
Spine  12.6812 2.63058 14.1878
Spine1  10.8603 5.98748 -5.68696
HEad  14.0823 -4.7311 -3.14931
LeftShoulder1  8.09642 -12.2296 -44.8338
LeftArm  -5.41956 24.635 -28.5012
LeftForeArm  37.2594 -12.8658 -5.4043
LeftHand  -0.25398 0.0180481 5.50724
RightShoulder  5.30124 9.03711 36.2837
RightArm  3.19448 -1.08459 34.0715
RightForeArm  -3.82359 17.9217 6.2749
RightHand  -3.984 11.7945 -26.8895
LeftUpLeg  -21.3055 6.64857 0.343107
LeftLeg  23.4672 1.4823 1.22428
LeftFoot  1.19365 0.189216 -1.78504
LeftToes  1.06246e-005 4.65854e-005 -8.18502e-006
1237
root  8.42481 39.6053 24.6195 -177.497 76.2382 -173.325
RightUpLeg  8.68191 -9.77689 0.868173
RightLeg  14.908 -6.57054 3.59675
RightFoot  -16.5721 -0.270213 -3.49721
RightToes  0.000482159 0.542163 -0.142577
Spine  12.0738 3.05821 13.8647
Spine1  11.7615 6.71338 -6.9677
HEad  13.8789 -4.69821 -3.22169
LeftShoulder1  8.00301 -12.1158 -44.6305
LeftArm  -6.02842 26.8251 -28.4688
LeftForeArm  36.5039 -13.2569 -5.13097
LeftHand  -0.25398 0.0180481 5.50724
RightShoulder  5.34506 9.13124 36.3144
RightArm  6.23405 0.112085 33.8077
RightForeArm  -5.91998 19.9898 5.75447
RightHand  -4.19189 12.1943 -27.6072
LeftUpLeg  -19.4789 9.00075 -0.941458
LeftLeg  8.15921 2.08558 -1.65133
LeftFoot  1.69075 0.252487 -2.29989
LeftToes  1.06246e-005 4.65854e-005 -8.18502e-006
1238
root  10.1398 39.3336 24.3009 -178.745 76.1226 -174.505
RightUpLeg  12.2834 -10.0815 0.0343445
RightLeg  14.1133 -5.67763 3.81243
RightFoot  -18.3779 -0.250178 -2.04221
RightToes  0.000482159 0.542163 -0.142577
Spine  11.6478 3.20426 13.6024
Spine1  12.4627 7.09118 -7.70228
HEad  13.978 -4.53093 -3.11799
LeftShoulder1  7.9397 -12.018 -44.5524
LeftArm  -6.6382 28.7564 -28.3974
LeftForeArm  35.2754 -13.7082 -4.86852
LeftHand  -0.25398 0.0180481 5.50724
RightShoulder  5.41094 9.23278 36.4901
RightArm  8.06983 1.59861 33.4438
RightForeArm  -6.24407 20.9126 5.5432
RightHand  -4.51848 12.852 -28.6285
LeftUpLeg  -17.2771 1.66683 1.63534
LeftLeg  -3.40595 16.0139 -6.57104
LeftFoot  0.298817 0.37545 -3.75533
LeftToes  1.06246e-005 4.65854e-005 -8.18502e-006
1239
root  11.9179 38.9061 23.9302 -178.5 75.384 -174.082
RightUpLeg  15.1942 -11.9453 -0.808858
RightLeg  15.4612 -3.97438 3.67851
RightFoot  -20.1038 -0.212918 -0.991645
RightToes  0.000482159 0.542163 -0.142577
Spine  11.1094 3.156 13.5876
Spine1  12.856 7.07523 -7.92547
HEad  14.3166 -4.50307 -2.90556
LeftShoulder1  7.82549 -11.8377 -44.4208
LeftArm  -7.35708 29.8954 -28.3805
LeftForeArm  34.5134 -13.6857 -4.72892
LeftHand  -0.25398 0.0180481 5.50724
RightShoulder  5.4222 9.21038 36.6492
RightArm  8.96906 3.12596 33.2949
RightForeArm  -5.7866 20.9274 5.5322
RightHand  -4.86028 13.5862 -29.5468
LeftUpLeg  -17.456 2.06585 0.520978
LeftLeg  -5.71412 23.2895 -8.48091
LeftFoot  -2.43868 0.341117 -4.09287
LeftToes  1.06246e-005 4.65854e-005 -8.18502e-006
1240
root  13.7216 38.5075 23.5599 -179.806 74.3309 -175.328
RightUpLeg  18.0154 -16.326 -3.20569
RightLeg  17.7302 0.286771 3.43093
RightFoot  -21.4844 -0.0889302 0.55837
RightToes  0.000482159 0.542163 -0.142577
Spine  10.7398 3.15101 12.7271
Spine1  13.5664 7.1119 -7.7701
HEad  14.6447 -4.84091 -2.67692
LeftShoulder1  7.73733 -11.6452 -44.4809
LeftArm  -7.86742 29.9125 -28.173
LeftForeArm  34.6091 -13.2808 -4.71206
LeftHand  -0.25398 0.0180481 5.50724
RightShoulder  5.44555 9.16482 36.9766
RightArm  9.14713 4.21918 33.0413
RightForeArm  -5.69641 20.78 5.56911
RightHand  -5.23472 14.4514 -30.3803
LeftUpLeg  -17.6441 1.97702 -1.08491
LeftLeg  -3.592 28.7001 -8.63733
LeftFoot  -0.970726 -0.0442643 0.29196
LeftToes  1.06246e-005 4.65854e-005 -8.18502e-006
1241
root  15.544 38.1185 23.1812 176.294 73.8065 -178.846
RightUpLeg  20.3413 -21.6594 -7.54099
RightLeg  22.5477 7.135 3.4957
RightFoot  -21.7597 0.260576 4.52549
RightToes  0.000482159 0.542163 -0.142577
Spine  11.0652 3.6165 10.9217
Spine1  14.3047 7.47176 -7.27083
HEad  14.8632 -5.48813 -2.42267
LeftShoulder1  7.86539 -11.6954 -45.0908
LeftArm  -7.95599 28.8564 -27.527
LeftForeArm  35.21 -12.8175 -4.77373
LeftHand  -0.25398 0.0180481 5.50724
RightShoulder  5.61501 9.32946 37.718
RightArm  8.431 4.81822 32.4006
RightForeArm  -5.70244 20.5198 5.63235
RightHand  -5.64537 15.4428 -31.1523
LeftUpLeg  -18.9688 5.0239 -4.14281
LeftLeg  4.18222 26.3134 -4.95303
LeftFoot  3.12347 -1.03481 7.91324
LeftToes  1.06246e-005 4.65854e-005 -8.18502e-006
1242
root  17.2863 37.8297 22.8076 169.68 73.4105 175.186
RightUpLeg  19.0185 -20.0087 -10.2324
RightLeg  31.9319 7.22996 4.4822
RightFoot  -16.8573 0.330661 9.99104
RightToes  0.000482159 0.542163 -0.142577
Spine  12.5791 4.18686 8.5065
Spine1  14.2947 7.84223 -6.86022
HEad  15.0412 -6.14919 -2.20216
LeftShoulder1  8.15528 -12.0112 -45.8317
LeftArm  -8.13871 26.9418 -26.9455
LeftForeArm  35.8195 -12.3442 -4.82993
LeftHand  -0.25398 0.0180481 5.50724
RightShoulder  5.87333 9.67884 38.4906
RightArm  6.17105 5.5059 32.0847
RightForeArm  -4.39933 19.1732 5.96172
RightHand  -6.00787 16.3422 -31.7379
LeftUpLeg  -20.7987 15.0087 -10.4465
LeftLeg  12.7353 13.4818 0.430204
LeftFoot  5.60186 -2.139 14.1877
LeftToes  1.06246e-005 4.65854e-005 -8.18502e-006
1243
root  18.8002 37.6939 22.4535 162.883 72.2675 168.712
RightUpLeg  12.9938 -17.5214 -12.2198
RightLeg  45.562 4.86361 4.92854
RightFoot  -4.18483 -0.789735 12.7398
RightToes  0.000482159 0.542163 -0.142577
Spine  15.2178 4.16462 6.43445
Spine1  13.3034 7.80263 -7.21441
HEad  15.1214 -6.48312 -2.34322
LeftShoulder1  8.33642 -12.3068 -45.9805
LeftArm  -8.74492 24.4431 -27.14
LeftForeArm  35.9598 -12.4537 -4.71833
LeftHand  -0.25398 0.0180481 5.50724
RightShoulder  6.00816 9.94646 38.6016
RightArm  1.91008 6.94558 32.9337
RightForeArm  -1.255 16.2145 6.72547
RightHand  -6.31007 17.0721 -32.2129
LeftUpLeg  -21.7737 19.1708 -14.715
LeftLeg  18.6458 7.59722 3.5883
LeftFoot  3.8477 -2.1161 15.5372
LeftToes  1.06246e-005 4.65854e-005 -8.18502e-006
1244
root  20.0009 37.5586 22.1376 157.855 70.7383 163.522
RightUpLeg  3.88513 -15.2745 -13.4458
RightLeg  59.1508 2.39488 3.84049
RightFoot  9.1357 -1.88703 10.8657
RightToes  0.000482159 0.542163 -0.142577
Spine  18.5659 3.61081 5.15927
Spine1  12.2015 7.44101 -8.51432
HEad  14.8224 -6.32277 -3.12029
LeftShoulder1  8.3701 -12.4477 -45.7513
LeftArm  -8.46358 21.8003 -27.8668
LeftForeArm  34.8628 -14.9598 -4.2152
LeftHand  -0.25398 0.0180481 5.50724
RightShoulder  5.98545 10.0565 38.0919
RightArm  -2.86292 9.36466 34.465
RightForeArm  1.76658 12.7472 7.43718
RightHand  -6.65914 17.8204 -32.8469
LeftUpLeg  -21.3818 16.9326 -15.773
LeftLeg  23.1923 9.93944 4.95299
LeftFoot  -0.16286 -1.373 13.9537
LeftToes  1.06246e-005 4.65854e-005 -8.18502e-006
